<svg id="Layer_1" height="512" viewBox="0 0 128 128" width="512" xmlns="http://www.w3.org/2000/svg" data-name="Layer 1"><path d="m64 121.5c-50.33-28.83-48.65-70.17-48.65-106.25 0 0 31.9 7 48.65-8.75 16.75 15.75 48.65 8.75 48.65 8.75 0 36.08 1.68 77.42-48.65 106.25z" fill="#a0cafe"/><path d="m64 111c-37.006-23.383-39.518-54.6-39.65-85.482 2.216.169 4.677.282 7.29.282 12.905 0 23.928-2.749 32.36-8.013 8.433 5.264 19.455 8.013 32.36 8.013 2.614 0 5.074-.113 7.29-.282-.131 30.882-2.643 62.099-39.65 85.482z" fill="#e1ebf0"/><path d="m71.509 54.385a7.509 7.509 0 1 0 -10.509 6.882v13.648h6v-13.648a7.509 7.509 0 0 0 4.509-6.882z" fill="#a0cafe"/><g fill="#3c4176"><path d="m105.815 75.158a1.744 1.744 0 0 0 -2.272.98c-.607 1.528-1.268 3.051-1.962 4.529a1.75 1.75 0 0 0 3.168 1.488c.725-1.541 1.413-3.131 2.046-4.724a1.75 1.75 0 0 0 -.98-2.273z"/><path d="m114.4 18.63v-3.38a1.751 1.751 0 0 0 -2.124-1.71c-.309.069-31.2 6.611-47.077-8.315a1.751 1.751 0 0 0 -2.4 0c-15.871 14.927-46.764 8.383-47.074 8.315a1.751 1.751 0 0 0 -2.125 1.71v3.386c-.052 35.6-.11 75.946 49.533 104.383a1.754 1.754 0 0 0 1.74 0c16.49-9.448 28.4-20.663 36.409-34.287a1.75 1.75 0 1 0 -3.017-1.773c-7.555 12.846-18.765 23.491-34.265 32.52-47.008-27.4-46.953-66.4-46.9-100.838v-1.278c7.374 1.261 31.881 4.237 46.9-8.516 15.018 12.755 39.526 9.775 46.9 8.516v1.272c.025 16.683.049 33.935-4.951 50.566a1.75 1.75 0 1 0 3.352 1.008c5.152-17.126 5.127-34.642 5.099-51.579z"/><path d="m33.39 25.8a1.75 1.75 0 0 0 -1.75-1.75c-2.336 0-4.744-.093-7.157-.278a1.768 1.768 0 0 0 -1.325.464 1.75 1.75 0 0 0 -.558 1.289c.139 32.437 3.337 63.5 40.465 86.954a1.748 1.748 0 0 0 1.87 0c37.127-23.459 40.327-54.517 40.465-86.954a1.749 1.749 0 0 0 -1.882-1.753c-2.414.185-4.822.278-7.158.278-12.444 0-23.314-2.679-31.433-7.747a1.751 1.751 0 0 0 -1.854 0c-6.255 3.9-13.964 6.365-22.912 7.312a1.75 1.75 0 1 0 .368 3.481c9.048-.958 16.938-3.4 23.471-7.261 8.654 5.12 19.535 7.715 32.36 7.715 1.812 0 3.664-.054 5.529-.161-.256 30.467-3.837 59.54-37.889 81.535-34.052-22-37.632-51.068-37.888-81.535 1.864.107 3.716.161 5.528.161a1.75 1.75 0 0 0 1.75-1.75z"/><path d="m61 76.66h6a1.749 1.749 0 0 0 1.75-1.75v-12.592a9.259 9.259 0 1 0 -9.5 0v12.592a1.75 1.75 0 0 0 1.75 1.75zm4.25-3.5h-2.5v-9.611a8.271 8.271 0 0 0 2.5 0zm-1.25-24.534a5.755 5.755 0 0 1 2.347 11.012c-.037.015-.072.035-.108.053a5.759 5.759 0 0 1 -4.48 0c-.035-.017-.069-.036-.1-.051a5.756 5.756 0 0 1 2.341-11.014z"/></g></svg>